<svg width="500" height="124" viewBox="0 0 500 124" fill="none" xmlns="http://www.w3.org/2000/svg">
<g opacity="0.7">
<defs>
<linearGradient id="paint0_linear" x1="250" y1="124" x2="250" y2="27.8475" gradientUnits="userSpaceOnUse">
<stop stop-color="#E6F6E8"/>
<stop offset="1" stop-color="#23B545" stop-opacity="0.9"/>
</linearGradient>
<linearGradient id="paint1_linear" x1="250" y1="124" x2="250" y2="27.8475" gradientUnits="userSpaceOnUse">
<stop stop-color="#E6F6E8"/>
<stop offset="1" stop-color="#23B545" stop-opacity="0.9"/>
</linearGradient>
</defs>
<path fill-rule="evenodd" clip-rule="evenodd" d="M0 8.94306L13.8889 5.78678C27.7778 2.63051 55.5556 -2.89297 83.3333 1.84144C111.111 5.78678 138.889 19.99 166.667 30.2479C194.444 39.7167 222.222 45.2402 250 44.4511C277.778 42.873 305.556 34.1932 333.333 30.2479C361.111 25.5135 388.889 25.5135 416.667 27.0916C444.444 28.6698 472.222 31.037 486.111 32.6151L500 34.1932V76.8029H486.111C472.222 76.8029 444.444 76.8029 416.667 76.8029C388.889 76.8029 361.111 76.8029 333.333 76.8029C305.556 76.8029 277.778 76.8029 250 76.8029C222.222 76.8029 194.444 76.8029 166.667 76.8029C138.889 76.8029 111.111 76.8029 83.3333 76.8029C55.5556 76.8029 27.7778 76.8029 13.8889 76.8029H0V8.94306Z" fill="#23B545"/>
<path d="M486.111 76.8029H500V124H0V76.8029H13.8889H83.3333H166.667H250H333.333H416.667H486.111Z" fill="#23B545"/>
</g>
<path fill-rule="evenodd" clip-rule="evenodd" d="M500 21.4406L487.5 16.3069C476.389 12.0289 452.778 2.61734 429.167 7.75094C404.167 12.0289 380.556 30.8522 356.944 39.4082C333.333 48.8198 309.722 48.8198 286.111 38.5526C262.5 27.4298 237.5 6.03974 213.889 0.906131C190.278 -3.37187 166.667 8.60654 143.056 13.7401C119.444 18.0181 95.8333 15.4513 70.8333 16.3069C47.2222 18.0181 23.6111 24.0074 12.5 27.4298L1.90735e-05 30.8522V58.2314H12.5C23.6111 58.2314 47.2222 58.2314 70.8333 58.2314C95.8333 58.2314 119.444 58.2314 143.056 58.2314C166.667 58.2314 190.278 58.2314 213.889 58.2314C237.5 58.2314 262.5 58.2314 286.111 58.2314C309.722 58.2314 333.333 58.2314 356.944 58.2314C380.556 58.2314 404.167 58.2314 429.167 58.2314C452.778 58.2314 476.389 58.2314 487.5 58.2314H500V21.4406Z" fill="url(#paint0_linear)" style="mix-blend-mode:multiply"/>
<path d="M12.5 58.2314H1.90735e-05V124H500V58.2314H487.5H429.167H356.944H286.111H213.889H143.056H70.8333H12.5Z" fill="url(#paint1_linear)" style="mix-blend-mode:multiply"/>
</svg>
